IKResults
version=1
nRows=14
nColumns=24
inDegrees=yes

Units are S.I. units (second, meters, Newtons, ...)
Angles are in degrees.

endheader
time	pelvis_tilt	pelvis_list	pelvis_rotation	pelvis_tx	pelvis_ty	pelvis_tz	hip_flexion_r	hip_adduction_r	hip_rotation_r	knee_angle_r	ankle_angle_r	subtalar_angle_r	mtp_angle_r	hip_flexion_l	hip_adduction_l	hip_rotation_l	knee_angle_l	ankle_angle_l	subtalar_angle_l	mtp_angle_l	lumbar_extension	lumbar_bending	lumbar_rotation
      7.50000000	     -1.41405482	     -4.12635731	     11.91625482	      0.92636184	      1.00433903	      1.56613422	     28.95264297	      0.95028316	    -11.67896547	    -12.58774962	     -1.86372035	      2.50045041	    -45.19008678	    -15.74100345	     -8.21677784	     14.06293664	    -17.41671122	     12.52051845	     12.15611706	    -55.66842971	     -8.06625568	      6.42584775	    -11.35564986
      7.51000000	     -0.80392317	     -4.23442071	     11.59704582	      0.92898653	      1.00595893	      1.56726928	     28.43703209	      1.48229753	    -11.16491966	    -14.80940562	     -1.96525796	      2.12334142	    -44.60099346	    -15.46317581	     -8.37926674	     13.51459658	    -20.48561391	      9.98964372	     13.22325055	    -56.06579922	     -8.51516638	      6.55901220	    -10.94128742
      7.52000000	     -0.13887138	     -4.28424785	     11.30405607	      0.93150832	      1.00815647	      1.56841341	     27.67077403	      1.97968058	    -10.70985210	    -16.79044704	     -1.76370419	      1.91876776	    -44.09254895	    -14.93529407	     -8.48864382	     12.93164861	    -23.82580941	      7.03400552	     14.25571569	    -56.32687738	     -9.05137238	      6.62356751	    -10.52015097
      7.53000000	      0.55004797	     -4.28765046	     11.04298311	      0.93385003	      1.01085298	      1.56955477	     26.64859144	      2.45055875	    -10.31326308	    -18.41656561	     -1.30596927	      1.85837084	    -43.64942576	    -14.15765036	     -8.56209406	     12.37300155	    -27.32923210	      3.80106997	     15.16998572	    -56.39402788	     -9.63935299	      6.62842256	    -10.09208549
      7.54000000	      1.19990617	     -4.23859521	     10.81075186	      0.93592658	      1.01391980	      1.57067366	     25.40202308	      2.88229752	     -9.93976651	    -19.59228916	     -0.87804787	      1.97782086	    -41.52578291	    -13.11209858	     -8.56803557	     11.92211556	    -30.89149797	      0.28838943	     15.91546503	    -53.07594899	    -10.21478087	      6.55448765	     -9.64835203
      7.55000000	      1.83681769	     -4.14868169	     10.60533205	      0.93769076	      1.01734982	      1.57172662	     23.96240025	      3.23867529	     -9.78616242	    -20.40273265	      0.15976174	      2.18435320	    -43.33676837	    -11.86683211	     -8.53231899	     11.52304810	    -34.41414179	     -3.04471871	     16.45334475	    -49.36405293	    -10.81054574	      6.42952960	     -9.16402335
      7.56000000	      2.44295999	     -4.00133365	     10.40793564	      0.93914599	      1.02108906	      1.57277148	     22.27291754	      3.57741939	     -9.52381160	    -20.70284514	      1.01617246	      2.37223490	    -43.16240645	    -10.46535359	     -8.42623278	     11.19819567	    -37.78088255	     -5.74053037	     16.64472195	    -49.34785206	    -11.40806918	      6.22340700	     -8.65015750
      7.57000000	      2.93808742	     -3.83545419	     10.22222621	      0.94025424	      1.02496641	      1.57373652	     20.49180239	      3.84610398	     -9.41471514	    -20.60546503	      1.75606268	      2.92461538	    -41.90873282	     -8.85555882	     -8.26892331	     10.94099125	    -40.93832135	     -8.31816968	     16.88915202	    -42.38816003	    -11.91075306	      5.97764058	     -8.09463854
      7.58000000	      3.41539617	     -3.59240197	     10.03765908	      0.94106233	      1.02910811	      1.57464597	     18.50487289	      4.03934858	     -9.28723305	    -20.08803031	      2.60667514	      3.40266764	    -42.09827811	     -7.18751863	     -8.01757522	     10.72720696	    -43.78046721	     -9.83392158	     16.94354898	    -42.13686172	    -12.43378951	      5.63886497	     -7.50963797
      7.59000000	      3.78758540	     -3.32973043	      9.85866597	      0.94152897	      1.03328828	      1.57544021	     16.53370401	      4.13499816	     -9.38300705	    -19.37501250	      3.47563338	      4.11413107	    -42.71539633	     -5.36882239	     -7.69747150	     10.54029092	    -46.32040377	    -10.78342449	     16.80211289	    -40.41702945	    -12.87228389	      5.26949319	     -6.91519117
      7.60000000	      3.99414127	     -2.99907170	      9.61071444	      0.94169461	      1.03744806	      1.57626190	     14.55884391	      4.19531392	     -9.13398538	    -18.28747869	      4.01779531	      4.49676063	    -42.69338863	     -3.40150390	     -7.25599238	     10.31892845	    -48.44088538	    -11.12932843	     16.76781323	    -40.34582838	    -13.17108188	      4.78261552	     -6.26045368
      7.61000000	      4.20144477	     -2.61727890	      9.27537792	      0.94165464	      1.04166131	      1.57703054	     12.52665544	      4.15669544	     -9.00199772	    -17.08434162	      4.62449626	      5.10839500	    -43.46488632	     -1.53147678	     -6.74704169	      9.96770867	    -50.06260113	    -11.35914058	     16.74939406	    -35.41117674	    -13.50746306	      4.23535175	     -5.49997059
      7.62000000	      4.28607320	     -2.19835019	      8.89745259	      0.94137534	      1.04572000	      1.57774256	     10.58069546	      4.03811347	     -8.82722175	    -15.76631497	      4.98770054	      5.73108490	    -43.46438986	      0.41892141	     -6.15136694	      9.59087193	    -51.25837047	    -10.81820048	     16.56778413	    -35.30875949	    -13.73579263	      3.62839900	     -4.73433367
      7.63000000	      4.31270428	     -1.73680246	      8.44901808	      0.94092556	      1.04961473	      1.57842012	      8.69094638	      3.82838703	     -8.68336419	    -14.41219917	      5.28465214	      6.44747813	    -43.51447365	      2.32211343	     -5.48924904	      9.13245516	    -51.95491184	    -10.03350014	     16.31105579	    -35.15793623	    -13.92509558	      2.96171635	     -3.94736138
